HIERARCHY
ROOT Hips
{
	OFFSET 0.00000 0.00000 0.00000
	CHANNELS 6 Xposition Yposition Zposition Zrotation Yrotation Xrotation 
	JOINT LHipJoint
	{
		OFFSET 0 0 0
		CHANNELS 3 Zrotation Yrotation Xrotation
		JOINT LeftHip
		{
			OFFSET 1.64549 -1.70879 0.84566
			CHANNELS 3 Zrotation Yrotation Xrotation
			JOINT LeftKnee
			{
				OFFSET 2.24963 -6.18082 0.00000
				CHANNELS 3 Zrotation Yrotation Xrotation
				JOINT LeftAnkle
				{
					OFFSET 2.71775 -7.46697 0.00000
					CHANNELS 3 Zrotation Yrotation Xrotation
					JOINT LeftToe
					{
						OFFSET 0.18768 -0.51564 2.24737
						CHANNELS 3 Zrotation Yrotation Xrotation
						End Site
						{
							OFFSET 0.00000 -0.00000 1.15935
						}
					}
				}
			}
		}
	}
	JOINT RHipJoint
	{
		OFFSET 0 0 0
		CHANNELS 3 Zrotation Yrotation Xrotation
		JOINT RightHip
		{
			OFFSET -1.58830 -1.70879 0.84566
			CHANNELS 3 Zrotation Yrotation Xrotation
			JOINT RightKnee
			{
				OFFSET -2.25006 -6.18201 0.00000
				CHANNELS 3 Zrotation Yrotation Xrotation
				JOINT RightAnkle
				{
					OFFSET -2.72829 -7.49593 0.00000
					CHANNELS 3 Zrotation Yrotation Xrotation
					JOINT RightToe
					{
						OFFSET -0.21541 -0.59185 2.10643
						CHANNELS 3 Zrotation Yrotation Xrotation
						End Site
						{
							OFFSET -0.00000 -0.00000 1.09838
						}
					}
				}
			}
		}
	}
	JOINT lowerback
	{
		OFFSET 0 0 0
		CHANNELS 3 Zrotation Yrotation Xrotation
		JOINT Chest
		{
			OFFSET 0.03142 2.10496 -0.11038
			CHANNELS 3 Zrotation Yrotation Xrotation
			JOINT Chest2
			{
				OFFSET -0.01863 2.10897 -0.06956
				CHANNELS 3 Zrotation Yrotation Xrotation
				JOINT lowerneck
				{
					OFFSET 0 0 0
					CHANNELS 3 Zrotation Yrotation Xrotation
					JOINT Neck
					{
						OFFSET -0.02267 1.73238 0.00451
						CHANNELS 3 Zrotation Yrotation Xrotation
						JOINT Head
						{
							OFFSET -0.05808 1.54724 -0.61749
							CHANNELS 3 Zrotation Yrotation Xrotation
							End Site
							{
								OFFSET -0.01396 1.71468 -0.21082
							}
						}
					}
				}
				JOINT LeftCollar
				{
					OFFSET 0 0 0
					CHANNELS 3 Zrotation Yrotation Xrotation
					JOINT LeftShoulder
					{
						OFFSET 3.44898 0.50298 0.21920
CHANNELS 3 Zrotation Xrotation Yrotation
						JOINT LeftElbow
						{
OFFSET 0 -5.419170 -0.000000
CHANNELS 3 Zrotation Xrotation Yrotation
							JOINT LeftWrist
							{
OFFSET 0 -2.443730 0.000000
CHANNELS 3 Zrotation Xrotation Yrotation
								JOINT lhand
								{
									OFFSET 0 0 0
CHANNELS 3 Zrotation Xrotation Yrotation
									JOINT LFingers
									{
OFFSET 0 -0.727500 0.000000
CHANNELS 3 Zrotation Xrotation Yrotation
										End Site
										{
OFFSET 0 -0.586530 0.000000
										}
									}
								}
								JOINT LThumb
								{
OFFSET 0 0.000000 0.000000
CHANNELS 3 Zrotation Xrotation Yrotation
									End Site
									{
OFFSET 0 -0.595490 0.595490
									}
								}
							}
						}
					}
				}
				JOINT RightCollar
				{
					OFFSET 0 0 0
					CHANNELS 3 Zrotation Yrotation Xrotation
					JOINT RightShoulder
					{
						OFFSET -3.23015 0.55830 0.31051
CHANNELS 3 Zrotation Xrotation Yrotation
						JOINT RightElbow
						{
OFFSET 0 -5.589760 0.000140
CHANNELS 3 Zrotation Xrotation Yrotation
							JOINT RightWrist
							{
OFFSET 0 -2.480600 0.000000
CHANNELS 3 Zrotation Xrotation Yrotation
								JOINT rhand
								{
									OFFSET 0 0 0
CHANNELS 3 Zrotation Xrotation Yrotation
									JOINT RFingers
									{
OFFSET 0 -0.816010 0.000000
CHANNELS 3 Zrotation Xrotation Yrotation
										End Site
										{
OFFSET 0 -0.657890 0.000000
										}
									}
								}
								JOINT RThumb
								{
OFFSET 0 0.000000 0.000000
CHANNELS 3 Zrotation Xrotation Yrotation
									End Site
									{
OFFSET 0 -0.667930 0.667930
									}
								}
							}
						}
					}
				}
			}
		}
	}
}
MOTION
Frames: 10
Frame Time: 0.008333333333333333
1.083100 16.699800 16.425600 -3.080900 -18.030200 22.879700 0.000000 0.000000 0.000000 -20.972000 -15.459100 -38.840600 4.909400 13.281000 40.429800 2.013000 13.721900 -34.634800 0.397700 -4.049100 -11.214700 0.000000 0.000000 0.000000 16.611400 21.690000 -64.523200 -7.126300 -15.437400 49.350500 -0.505100 -4.902100 12.650000 -0.105600 2.095800 -5.770600 -3.225400 -7.131300 4.446900 -2.806300 -10.650100 -10.650100 0.442800 -4.995400 -14.167800 -8.405000 -6.484700 -11.393100 14.724100 -14.030300 35.860000 5.369000 -5.644600 16.669600 -0.000000 -0.000000 0.000000 32.219700 -47.128200 54.608300 14.811700 -23.883100 3.149300 0.846800 -32.160100 -11.370000 0.000000 0.000000 0.000000 -7.125000 0.000000 0.000000 -22.855100 40.227100 -2.862400 -0.000000 -0.000000 0.000000 -47.215100 -11.378100 -103.494200 -7.457600 -12.669800 -0.829100 -9.026700 10.432200 -22.318000 0.000000 0.000000 0.000000 7.125000 0.000000 -0.000000 12.447400 7.838400 10.900800
1.122700 16.617700 16.268300 -3.358400 -19.355900 23.104800 0.000000 0.000000 0.000000 -20.412200 -15.667000 -40.749300 5.368400 13.787100 42.391100 2.324300 13.303600 -36.007500 0.179600 -2.729400 -7.526200 0.000000 0.000000 0.000000 16.270500 21.623200 -64.398300 -8.159400 -16.235300 53.134900 -0.070300 -3.610900 4.997800 -0.889900 6.013000 -16.822100 -3.373600 -7.161100 3.864800 -2.395300 -10.576600 -10.297000 0.834900 -4.954000 -13.252900 -9.725100 -8.557600 -9.758800 15.032800 -17.333700 35.759600 5.105300 -7.313000 17.069400 0.000000 0.000000 0.000000 23.721700 -45.977700 44.096500 18.197300 -28.409100 4.642700 12.837100 -37.261100 -17.450600 0.000000 0.000000 0.000000 -7.125000 0.000000 0.000000 -14.436500 47.317800 0.842500 0.000000 0.000000 0.000000 -41.824900 -14.563300 -88.380400 -9.220100 -15.510400 -1.258300 -19.990700 -22.058100 -25.831300 0.000000 0.000000 0.000000 7.125000 0.000000 -0.000000 5.898600 2.850500 5.628300
1.170800 16.559800 16.142400 -3.788500 -20.876800 23.113500 0.000000 0.000000 0.000000 -19.912800 -15.773300 -41.869600 5.712600 14.143900 43.817000 2.483800 13.647300 -37.084600 0.077500 -1.795400 -4.940500 0.000000 0.000000 0.000000 16.343900 21.029000 -63.516600 -9.270300 -16.978500 57.020300 0.126100 -6.325100 -3.090700 -0.788500 5.668600 -15.825700 -3.594500 -7.430200 4.196400 -1.234300 -10.890000 -10.700400 2.309800 -4.985100 -13.632300 -10.827800 -10.058100 -8.234200 13.738500 -19.356200 36.444400 4.345800 -8.550400 17.408000 -0.000000 -0.000000 0.000000 15.718200 -43.532000 39.167200 19.101900 -29.545100 5.081000 16.181500 -33.474300 -20.846500 0.000000 0.000000 0.000000 -7.125000 0.000000 0.000000 -12.511800 51.183800 1.931600 -0.000000 -0.000000 0.000000 -38.038600 -18.400900 -84.366700 -9.944100 -16.652100 -1.458900 -29.070900 -30.558100 -26.893600 0.000000 0.000000 0.000000 7.125000 0.000000 -0.000000 0.604600 -0.145100 0.606100
1.216800 16.540200 16.012800 -4.275200 -22.606600 23.333200 0.000000 0.000000 0.000000 -19.219800 -15.923000 -42.948400 5.933800 14.363800 44.715300 2.571400 14.373300 -38.049000 0.043200 -1.342000 -3.690200 0.000000 0.000000 0.000000 16.746900 19.935700 -62.459500 -10.173600 -17.506300 60.067000 0.241900 -9.978000 -8.908800 -0.406800 4.094500 -11.342700 -3.374300 -7.368900 3.494000 -0.519500 -10.647600 -10.607200 2.800400 -4.883700 -12.973700 -11.672600 -11.419100 -6.167500 13.223300 -21.316600 36.004300 3.908700 -9.685000 17.078000 -0.000000 0.000000 0.000000 8.007300 -42.270300 34.073200 19.437300 -29.958400 5.247400 19.859100 -29.261600 -26.792000 0.000000 0.000000 0.000000 -7.125000 0.000000 0.000000 -11.466300 57.841700 3.635600 -0.000000 0.000000 0.000000 -34.860600 -21.836300 -90.318000 -8.215400 -13.901400 -1.003200 -33.143700 -15.638000 -23.693100 0.000000 0.000000 0.000000 7.125000 0.000000 -0.000000 -2.376700 2.341700 -2.279600
1.261100 16.540200 15.908200 -4.781800 -24.423400 23.458500 0.000000 0.000000 0.000000 -18.649300 -15.729900 -43.505400 6.037600 14.464700 45.132600 2.733600 14.508500 -38.940300 0.000400 -0.122400 -0.336200 0.000000 0.000000 0.000000 17.351000 18.175600 -60.821100 -10.802000 -17.836800 62.136800 0.425000 -14.091900 -13.954400 -0.125000 2.279500 -6.278700 -2.394800 -6.574900 1.866500 -0.805600 -9.345800 -9.636700 1.511300 -4.446800 -11.110600 -12.353400 -13.407500 -4.170500 14.390900 -24.762500 34.542100 3.824800 -11.269100 16.889500 -0.000000 0.000000 0.000000 0.358200 -42.564200 27.419200 18.262000 -28.491400 4.673600 19.593900 -26.429400 -28.290500 0.000000 0.000000 0.000000 -7.125000 0.000000 0.000000 -12.596700 59.275700 4.436400 -0.000000 0.000000 0.000000 -31.388800 -24.542000 -103.691200 -6.517600 -11.122700 -0.635300 -33.709800 1.496600 -22.316200 0.000000 0.000000 0.000000 7.125000 0.000000 -0.000000 -2.959800 3.747100 -2.763800
1.300400 16.543100 15.799100 -5.593100 -26.782500 23.958300 0.000000 0.000000 0.000000 -17.671000 -15.381000 -44.030500 6.066200 14.492200 45.246800 3.218300 13.137900 -40.313000 0.100700 2.046300 5.633600 0.000000 0.000000 0.000000 17.873300 16.715000 -59.100100 -11.187900 -18.025800 63.390200 -0.153600 -15.413900 -23.373000 -1.649300 -8.093800 22.999300 -1.893500 -6.129200 -0.322600 -0.327800 -8.505200 -8.413400 1.286000 -4.134700 -8.443400 -12.991000 -14.730100 -4.191800 14.732400 -26.872800 34.086200 3.514100 -12.183600 17.311600 -0.000000 -0.000000 0.000000 -6.096100 -42.936000 21.735300 17.525300 -27.545100 4.327500 21.196800 -26.732700 -29.565100 0.000000 0.000000 0.000000 -7.125000 0.000000 0.000000 -11.612300 60.924600 4.541000 -0.000000 -0.000000 0.000000 -26.599700 -28.897300 -106.505400 -6.089200 -10.410800 -0.555300 -35.426900 5.020000 -22.318200 0.000000 0.000000 0.000000 7.125000 0.000000 -0.000000 -4.007100 3.298700 -3.779300
1.329200 16.574300 15.663600 -5.926400 -29.541200 24.521500 0.000000 0.000000 0.000000 -17.672200 -14.052300 -45.029500 5.996100 14.424500 44.965900 3.173300 13.918900 -40.609800 0.083400 1.862400 5.125600 0.000000 0.000000 0.000000 17.165400 15.953700 -57.789700 -11.326500 -18.091200 63.837500 0.497200 -20.676200 -25.217400 -1.625400 -8.037800 22.828800 -2.741600 -5.756700 1.325100 0.835400 -8.122400 -10.136900 3.272200 -3.740400 -11.078100 -13.257200 -15.455700 -1.748500 12.723300 -27.692800 34.730800 2.757200 -12.927700 16.817100 0.000000 -0.000000 0.000000 -11.852200 -38.334600 16.552000 17.470800 -27.474200 4.302300 22.709300 -27.501700 -32.679800 0.000000 0.000000 0.000000 -7.125000 0.000000 0.000000 -12.074000 64.407400 5.713900 0.000000 -0.000000 0.000000 -19.661100 -27.980300 -83.734600 -6.425200 -10.969500 -0.617600 -37.752800 -15.153300 -21.758300 0.000000 0.000000 0.000000 7.125000 0.000000 -0.000000 -5.524500 3.302600 -5.221800
1.361400 16.619700 15.585800 -6.558800 -32.886200 25.007600 0.000000 0.000000 0.000000 -17.575600 -12.864800 -45.201700 5.875400 14.306500 44.479800 3.502300 14.033700 -42.164400 0.333100 3.709300 10.260300 0.000000 0.000000 0.000000 16.705700 14.675200 -55.594600 -11.165700 -18.015200 63.318600 0.001400 -21.272100 -30.016800 -2.941600 -10.599900 30.942200 -1.890100 -4.983500 -0.625700 0.832000 -6.921500 -9.301300 2.423800 -3.296000 -9.134500 -12.527600 -16.335900 -1.412300 12.821200 -28.902600 33.524700 2.460900 -13.398100 16.217600 0.000000 -0.000000 0.000000 -15.861600 -37.648000 10.119400 16.445000 -26.120400 3.839800 22.296200 -26.420900 -36.058900 0.000000 0.000000 0.000000 -7.125000 0.000000 0.000000 -15.712000 67.563800 8.610900 0.000000 -0.000000 0.000000 -12.837100 -30.302300 -73.924600 -6.585600 -11.235300 -0.648500 -39.929700 -26.087900 -22.815800 0.000000 0.000000 0.000000 7.125000 0.000000 -0.000000 -6.614600 1.398000 -6.495000
1.389000 16.645500 15.514000 -6.720400 -36.144600 24.868400 0.000000 0.000000 0.000000 -18.016600 -11.519500 -44.985600 5.773900 14.205600 44.067400 3.802500 13.979000 -43.430300 0.547600 4.740800 13.170800 0.000000 0.000000 0.000000 15.949300 12.745000 -53.210800 -10.796800 -17.834200 62.120000 -0.029400 -23.161700 -32.808700 -2.524500 -9.882400 28.596700 -2.329900 -4.630300 -0.224100 1.891300 -6.425800 -9.837800 3.828200 -2.948600 -9.827000 -13.557300 -16.551100 -0.066300 11.784700 -28.834400 33.314200 2.348300 -13.678700 15.745900 0.000000 0.000000 0.000000 -19.993500 -33.870500 -0.947900 15.548500 -24.904600 3.453600 22.801600 -30.630500 -30.578100 0.000000 0.000000 0.000000 -7.125000 0.000000 0.000000 -10.439700 62.341400 4.426500 0.000000 0.000000 0.000000 -7.460000 -30.509100 -69.617600 -6.287800 -10.741200 -0.591700 -39.999500 -25.021300 -22.615900 0.000000 0.000000 0.000000 7.125000 0.000000 -0.000000 -6.698500 1.612300 -6.552700
1.414500 16.658400 15.445100 -7.254300 -39.278300 25.263000 0.000000 0.000000 0.000000 -17.999700 -10.408900 -45.104900 5.707600 14.138900 43.796700 4.087200 14.091600 -44.690700 0.688100 5.303100 14.775200 0.000000 0.000000 0.000000 15.389400 10.798400 -51.389700 -10.238400 -17.541800 60.282200 -0.932200 -22.379200 -36.964000 -3.519700 -11.492300 33.958700 -1.962500 -4.499800 -0.568800 2.751000 -6.176000 -9.980300 4.499200 -2.825700 -9.743500 -13.790700 -16.349300 0.026100 10.897900 -28.280700 33.538000 2.177300 -13.555200 15.570400 0.000000 0.000000 0.000000 -21.915700 -31.151900 -13.883600 15.311200 -24.577800 3.354300 22.306400 -30.842700 -33.947700 0.000000 0.000000 0.000000 -7.125000 0.000000 0.000000 -13.625700 65.536600 6.817000 0.000000 0.000000 0.000000 -1.957100 -30.646900 -67.861800 -5.579800 -9.559500 -0.466900 -40.526000 -17.125800 -21.138000 0.000000 0.000000 0.000000 7.125000 0.000000 -0.000000 -7.324000 3.209500 -6.960400
